<?xml version="1.0" encoding="UTF-8"?>
<!DOCTYPE svg PUBLIC "-//W3C//DTD SVG 1.1//EN" "http://www.w3.org/Graphics/SVG/1.1/DTD/svg11.dtd">
<svg xmlns="http://www.w3.org/2000/svg" version="1.1" width="32px" height="32px" style="shape-rendering:geometricPrecision; text-rendering:geometricPrecision; image-rendering:optimizeQuality; fill-rule:evenodd; clip-rule:evenodd" xmlns:xlink="http://www.w3.org/1999/xlink">
<g><path style="opacity:1" fill="#f6f1f8" d="M 12.5,6.5 C 9.91996,8.99372 7.25329,8.99372 4.5,6.5C 5.18342,4.82351 6.51676,4.15684 8.5,4.5C 8.5,3.16667 8.5,1.83333 8.5,0.5C 12.1817,0.334703 15.8484,0.50137 19.5,1C 16.98,2.69712 14.6467,4.53045 12.5,6.5 Z"/></g>
<g><path style="opacity:1" fill="#5c148f" d="M -0.5,-0.5 C 10.1667,-0.5 20.8333,-0.5 31.5,-0.5C 31.5,2.5 31.5,5.5 31.5,8.5C 30.8333,10.1667 30.1667,11.8333 29.5,13.5C 29.5,12.1667 29.5,10.8333 29.5,9.5C 27.0521,8.52693 24.3854,8.1936 21.5,8.5C 21.5,7.5 21.5,6.5 21.5,5.5C 24.0593,5.80155 26.3926,5.46822 28.5,4.5C 28.5,3.16667 28.5,1.83333 28.5,0.5C 25.8333,0.5 23.1667,0.5 20.5,0.5C 20.5,1.83333 20.5,3.16667 20.5,4.5C 20.5,5.83333 20.5,7.16667 20.5,8.5C 17.8877,7.6295 15.221,6.96283 12.5,6.5C 14.6467,4.53045 16.98,2.69712 19.5,1C 15.8484,0.50137 12.1817,0.334703 8.5,0.5C 8.5,1.83333 8.5,3.16667 8.5,4.5C 6.51676,4.15684 5.18342,4.82351 4.5,6.5C 3.22086,5.03201 1.5542,4.36534 -0.5,4.5C -0.5,2.83333 -0.5,1.16667 -0.5,-0.5 Z"/></g>
<g><path style="opacity:1" fill="#f6f3f8" d="M 28.5,4.5 C 25.8333,4.5 23.1667,4.5 20.5,4.5C 20.5,3.16667 20.5,1.83333 20.5,0.5C 23.1667,0.5 25.8333,0.5 28.5,0.5C 28.5,1.83333 28.5,3.16667 28.5,4.5 Z"/></g>
<g><path style="opacity:1" fill="#6711ca" d="M -0.5,4.5 C 1.5542,4.36534 3.22086,5.03201 4.5,6.5C 7.25329,8.99372 9.91996,8.99372 12.5,6.5C 15.221,6.96283 17.8877,7.6295 20.5,8.5C 20.5,10.1667 20.5,11.8333 20.5,13.5C 20.5,16.8333 20.5,20.1667 20.5,23.5C 19.1667,23.5 17.8333,23.5 16.5,23.5C 16.8182,18.9677 16.4849,14.6344 15.5,10.5C 13.0199,11.9117 10.6866,13.5784 8.5,15.5C 6.4235,13.7123 4.25683,12.0456 2,10.5C 0.562971,15.5762 2.3963,18.9095 7.5,20.5C 8.38568,21.325 8.71901,22.325 8.5,23.5C 5.42994,23.6323 2.42994,23.299 -0.5,22.5C -0.5,16.5 -0.5,10.5 -0.5,4.5 Z"/></g>
<g><path style="opacity:1" fill="#9058b7" d="M 20.5,4.5 C 23.1667,4.5 25.8333,4.5 28.5,4.5C 26.3926,5.46822 24.0593,5.80155 21.5,5.5C 21.5,6.5 21.5,7.5 21.5,8.5C 24.3854,8.1936 27.0521,8.52693 29.5,9.5C 26.8333,9.5 24.1667,9.5 21.5,9.5C 21.5,10.8333 21.5,12.1667 21.5,13.5C 21.1667,13.5 20.8333,13.5 20.5,13.5C 20.5,11.8333 20.5,10.1667 20.5,8.5C 20.5,7.16667 20.5,5.83333 20.5,4.5 Z"/></g>
<g><path style="opacity:1" fill="#fefefe" d="M 29.5,9.5 C 29.5,10.8333 29.5,12.1667 29.5,13.5C 26.8333,13.5 24.1667,13.5 21.5,13.5C 21.5,12.1667 21.5,10.8333 21.5,9.5C 24.1667,9.5 26.8333,9.5 29.5,9.5 Z"/></g>
<g><path style="opacity:1" fill="#faf8fc" d="M 15.5,10.5 C 15.5,14.8333 15.5,19.1667 15.5,23.5C 13.1667,23.5 10.8333,23.5 8.5,23.5C 8.71901,22.325 8.38568,21.325 7.5,20.5C 2.3963,18.9095 0.562971,15.5762 2,10.5C 4.25683,12.0456 6.4235,13.7123 8.5,15.5C 10.6866,13.5784 13.0199,11.9117 15.5,10.5 Z"/></g>
<g><path style="opacity:1" fill="#6500d1" d="M 31.5,8.5 C 31.5,13.1667 31.5,17.8333 31.5,22.5C 28.9783,22.1281 26.9783,22.9614 25.5,25C 20.627,25.7508 19.2937,25.5841 21.5,24.5C 21.5,21.1667 21.5,17.8333 21.5,14.5C 24.3854,14.8064 27.0521,14.4731 29.5,13.5C 30.1667,11.8333 30.8333,10.1667 31.5,8.5 Z"/></g>
<g><path style="opacity:1" fill="#5f20ba" d="M 15.5,10.5 C 16.4849,14.6344 16.8182,18.9677 16.5,23.5C 17.8333,23.5 19.1667,23.5 20.5,23.5C 20.5,20.1667 20.5,16.8333 20.5,13.5C 20.8333,13.5 21.1667,13.5 21.5,13.5C 24.1667,13.5 26.8333,13.5 29.5,13.5C 27.0521,14.4731 24.3854,14.8064 21.5,14.5C 21.5,17.8333 21.5,21.1667 21.5,24.5C 19.2937,25.5841 20.627,25.7508 25.5,25C 26.9783,22.9614 28.9783,22.1281 31.5,22.5C 31.5,24.1667 31.5,25.8333 31.5,27.5C 30.5,27.5 29.5,27.5 28.5,27.5C 25.1667,27.5 21.8333,27.5 18.5,27.5C 18.5,26.8333 18.1667,26.5 17.5,26.5C 16.1667,26.5 15.5,27.1667 15.5,28.5C 14.8333,28.1667 14.1667,27.8333 13.5,27.5C 9.83333,27.5 6.16667,27.5 2.5,27.5C 1.63476,27.4361 0.634763,27.1027 -0.5,26.5C -0.5,25.1667 -0.5,23.8333 -0.5,22.5C 2.42994,23.299 5.42994,23.6323 8.5,23.5C 10.8333,23.5 13.1667,23.5 15.5,23.5C 15.5,19.1667 15.5,14.8333 15.5,10.5 Z"/></g>
<g><path style="opacity:1" fill="#aea5d3" d="M 2.5,27.5 C 6.16667,27.5 9.83333,27.5 13.5,27.5C 13.2504,28.9221 12.417,29.9221 11,30.5C 7.64889,30.0865 3.81555,30.0865 -0.5,30.5C -0.5,30.1667 -0.5,29.8333 -0.5,29.5C 1.17876,29.7148 2.17876,29.0481 2.5,27.5 Z"/></g>
<g><path style="opacity:1" fill="#cfbadf" d="M 17.5,26.5 C 17.631,27.2389 17.4643,27.9056 17,28.5C 16.31,29.7383 15.81,29.7383 15.5,28.5C 15.5,27.1667 16.1667,26.5 17.5,26.5 Z"/></g>
<g><path style="opacity:1" fill="#dfddec" d="M -0.5,26.5 C 0.634763,27.1027 1.63476,27.4361 2.5,27.5C 2.17876,29.0481 1.17876,29.7148 -0.5,29.5C -0.5,28.5 -0.5,27.5 -0.5,26.5 Z"/></g>
<g><path style="opacity:1" fill="#4f2289" d="M 17.5,26.5 C 18.1667,26.5 18.5,26.8333 18.5,27.5C 19.952,29.8519 21.952,30.1852 24.5,28.5C 25.7481,29.0402 26.9148,29.7069 28,30.5C 28.4828,29.552 28.6495,28.552 28.5,27.5C 29.5,27.5 30.5,27.5 31.5,27.5C 31.5,28.8333 31.5,30.1667 31.5,31.5C 20.8333,31.5 10.1667,31.5 -0.5,31.5C -0.5,31.1667 -0.5,30.8333 -0.5,30.5C 3.81555,30.0865 7.64889,30.0865 11,30.5C 12.417,29.9221 13.2504,28.9221 13.5,27.5C 14.1667,27.8333 14.8333,28.1667 15.5,28.5C 15.81,29.7383 16.31,29.7383 17,28.5C 17.4643,27.9056 17.631,27.2389 17.5,26.5 Z"/></g>
<g><path style="opacity:1" fill="#c4aad6" d="M 18.5,27.5 C 21.8333,27.5 25.1667,27.5 28.5,27.5C 28.6495,28.552 28.4828,29.552 28,30.5C 26.9148,29.7069 25.7481,29.0402 24.5,28.5C 21.952,30.1852 19.952,29.8519 18.5,27.5 Z"/></g>
</svg>
